# xmcd CD database file
#
# Track frame offsets:
#	150
#	23097
#	41357
#	54514
#	73582
#	92174
#	109416
#	131022
#	146812
#	167964
#	190110
#	202275
#	220520
#	237916
#
# Disc length: 3389 seconds
#
# Revision: 3
# Processed by: cddbd v1.5.2PL0 Copyright (c) Steve Scherf et al.
# Submitted via: CDex 1.70beta2
#
DISCID=d10d3b0e
DTITLE=Nena feat. Nena - 20 Jahre - Das Jubilaeumsalbum
DYEAR=2004
DGENRE=NDW
TTITLE0=Nena - 99 Luftballons (New Version/Album Version 2)
TTITLE1=Nena mit Kim Wilde - Anyplace, Anywhere, Anytime (New Version)
TTITLE2=Nena - Nur getraeumt (New Version)
TTITLE3=Nena - Leuchtturm (New Version)
TTITLE4=Nena - ? (Fragezeichen) (New Version)
TTITLE5=Nena mit Witt - Wunder geschehen (New Version) (mit Witt)
TTITLE6=Nena mit Udo Lindenberg - Jetzt bist du weg (New Version)
TTITLE7=Nena - Lass mich dein Pirat sein (New Version)
TTITLE8=Nena - Es regnet (New Version)
TTITLE9=Nena - Lichtarbeiter (New Version)
TTITLE10=Nena - Vollmond (New Version)
TTITLE11=Nena - Irgendwie, irgendwo, irgendwann (New Version)
TTITLE12=Nena - Ich haeng immer noch an Dir (New Version)
TTITLE13=Nena mit Soehne Mannheims - Carpe Diem
EXTD=YEAR: 2004
EXTT0=
EXTT1=
EXTT2=
EXTT3=
EXTT4=
EXTT5=
EXTT6=
EXTT7=
EXTT8=
EXTT9=
EXTT10=
EXTT11=
EXTT12=
EXTT13=
PLAYORDER=
